<svg width="13" height="16" viewBox="0 0 13 16" fill="none" xmlns="http://www.w3.org/2000/svg">
<path d="M3.15616 10.4018C3.15616 10.1479 2.97996 9.99643 2.66907 9.99643C2.54212 9.99643 2.45615 10.009 2.41118 10.0209V10.8357C2.46443 10.8477 2.52988 10.8517 2.62011 10.8517C2.95148 10.8517 3.15616 10.6842 3.15616 10.4018Z" fill="#51459E"/>
<path d="M5.08096 10.0048C4.94174 10.0048 4.85177 10.0168 4.79855 10.0293V11.8336C4.8518 11.8461 4.93778 11.8461 5.01551 11.8461C5.5803 11.8501 5.94865 11.5392 5.94865 10.8805C5.95265 10.3076 5.61699 10.0048 5.08096 10.0048Z" fill="#51459E"/>
<path d="M8.65602 0.564224H2.51474C1.61755 0.564224 0.887344 1.29494 0.887344 2.19162V8.20944H0.728394C0.366286 8.20944 0.0726166 8.50282 0.0726166 8.86525V12.8423C0.0726166 13.2047 0.366255 13.498 0.728394 13.498H0.887344V14.2273C0.887344 15.1249 1.61755 15.8547 2.51474 15.8547H10.8943C11.7909 15.8547 12.5212 15.1249 12.5212 14.2273V4.41583L8.65602 0.564224ZM1.79299 9.58296C1.98518 9.55049 2.25532 9.526 2.63592 9.526C3.02054 9.526 3.29467 9.59942 3.47887 9.74689C3.65482 9.88586 3.77355 10.1152 3.77355 10.3852C3.77355 10.6551 3.68358 10.8845 3.51987 11.04C3.30695 11.2404 2.99206 11.3304 2.62371 11.3304C2.54173 11.3304 2.46824 11.3263 2.41078 11.3183V12.3045H1.79299V9.58296ZM10.8943 14.858H2.51474C2.16734 14.858 1.88446 14.5752 1.88446 14.2273V13.498H9.69588C10.0581 13.498 10.3517 13.2047 10.3517 12.8423V8.86525C10.3517 8.50282 10.0581 8.20944 9.69588 8.20944H1.88446V2.19162C1.88446 1.84473 2.16738 1.56185 2.51474 1.56185L8.28316 1.55582V3.68803C8.28316 4.31083 8.78849 4.81663 9.41176 4.81663L11.5005 4.81064L11.524 14.2273C11.524 14.5752 11.2416 14.858 10.8943 14.858ZM4.17191 12.292V9.58296C4.40104 9.54649 4.69969 9.526 5.01486 9.526C5.53865 9.526 5.8783 9.61997 6.14444 9.82037C6.43085 10.0333 6.61076 10.3727 6.61076 10.86C6.61076 11.3878 6.41858 11.7522 6.1524 11.9771C5.862 12.2185 5.41994 12.333 4.87989 12.333C4.55647 12.333 4.32734 12.3125 4.17191 12.292ZM8.63807 10.6881V11.1954H7.64765V12.3045H7.02162V9.54649H8.70752V10.0578H7.64765V10.6881H8.63807Z" fill="#51459E"/>
</svg>
